<svg xmlns="http://www.w3.org/2000/svg" aria-hidden="true" viewBox="0 0 480 480"><defs><filter id="a" color-interpolation-filters="sRGB"><feFlood flood-opacity=".5" flood-color="#000" result="flood"/><feComposite in="flood" in2="SourceGraphic" operator="in" result="composite1"/><feGaussianBlur in="composite1" stdDeviation="3" result="blur"/><feOffset dx="6" dy="6" result="offset"/><feComposite in="SourceGraphic" in2="offset" result="composite2"/></filter></defs><circle cx="237.8" cy="241.9" r="214.2" fill="#00bce2" filter="url(#a)"/><g transform="matrix(1.16752 0 0 1.16752 139 -205)" filter="url(#a)" opacity=".8"><path d="M21 389h127l-14-40H35l-14 40m113 46a14 14 0 0014-14 14 14 0 00-14-13 14 14 0 00-13 13 14 14 0 0013 14m-99 0a14 14 0 0013-14 14 14 0 00-13-13 14 14 0 00-14 13 14 14 0 0014 14m112-91l19 54v73a9 9 0 01-9 9h-9a9 9 0 01-9-9v-9H30v9a9 9 0 01-9 9h-9a9 9 0 01-9-9v-73l19-54c2-5 7-9 13-9h99c6 0 11 4 13 9m-62-81c19 0 37 7 51 21l-13 13a55 55 0 00-38-16c-15 0-29 6-39 16l-13-13c14-14 32-21 52-21m0 36c9 0 18 4 25 10l-13 13c-3-3-8-5-12-5-5 0-10 2-13 5l-13-13c7-6 16-10 26-10z"/></g></svg>